# Blender v2.75 (sub 0) OBJ File: 'AgingVessel.blend'
# www.blender.org
v 0.000000 6.450000 4.733113
v 0.000000 6.622746 4.970877
v 0.000000 6.902255 4.880059
v 0.000000 6.902255 4.586166
v 0.000000 6.622746 4.495348
v 1.188821 7.313729 4.733113
v 1.024530 7.367110 4.970877
v 0.758701 7.453483 4.880059
v 0.758701 7.453483 4.586166
v 1.024530 7.367110 4.495348
v 0.734731 8.711271 4.733113
v 0.633194 8.571517 4.970877
v 0.468903 8.345390 4.880059
v 0.468903 8.345390 4.586166
v 0.633194 8.571517 4.495348
v -0.734731 8.711271 4.733113
v -0.633194 8.571517 4.970877
v -0.468903 8.345390 4.880059
v -0.468903 8.345390 4.586166
v -0.633194 8.571517 4.495348
v -1.188821 7.313729 4.733113
v -1.024530 7.367110 4.970877
v -0.758701 7.453483 4.880059
v -0.758701 7.453483 4.586166
v -1.024530 7.367110 4.495348
v -0.418605 1.329308 0.418605
v -1.297170 2.948695 1.297170
v -2.237842 4.568081 2.237842
v -2.740223 6.187468 2.740223
v -2.740223 7.806855 2.740223
v -2.740223 9.426242 2.740223
v -2.740223 11.045628 2.740223
v -2.740223 12.665014 2.740223
v -2.740223 14.284401 2.740223
v -2.740223 14.284401 -2.740223
v -2.740223 12.665014 -2.740223
v -2.740223 11.045628 -2.740223
v -2.740223 9.426241 -2.740223
v -2.740223 7.806855 -2.740223
v -2.740223 6.187468 -2.740223
v -2.237842 4.568081 -2.237842
v -1.297170 2.948695 -1.297170
v -0.418605 1.329308 -0.418605
v 2.740223 14.284401 -2.740223
v 2.740223 12.665014 -2.740223
v 2.740223 11.045628 -2.740223
v 2.740223 9.426241 -2.740223
v 2.740223 7.806855 -2.740223
v 2.740223 6.187468 -2.740223
v 2.237842 4.568081 -2.237842
v 1.297170 2.948695 -1.297170
v 0.418605 1.329308 -0.418605
v 2.740223 14.284401 2.740223
v 2.740223 12.665014 2.740223
v 2.740223 11.045628 2.740223
v 2.740223 9.426241 2.740223
v 2.740223 7.806855 2.740223
v 2.740223 6.187468 2.740223
v 2.237842 4.568081 2.237842
v 1.297170 2.948695 1.297170
v 0.418605 1.329308 0.418605
v 0.000000 14.284401 3.840721
v 0.000000 12.665014 3.840721
v 0.000000 11.045628 3.840721
v 0.000000 9.426241 3.840721
v 0.000000 7.806855 3.840721
v 0.000000 6.187468 3.840721
v -0.000000 4.568081 3.136578
v -0.000000 2.948695 1.818125
v -0.000000 1.329308 0.586720
v 0.000000 14.284401 -3.840721
v 0.000000 12.665014 -3.840721
v 0.000000 11.045628 -3.840721
v 0.000000 9.426241 -3.840721
v 0.000000 7.806855 -3.840721
v 0.000000 6.187468 -3.840721
v -0.000000 4.568081 -3.136578
v -0.000000 2.948695 -1.818125
v -0.000000 1.329308 -0.586720
v 3.840721 14.284401 0.000000
v 3.840721 12.665014 0.000000
v 3.840721 11.045628 0.000000
v 3.840721 9.426241 0.000000
v 3.840721 7.806855 0.000000
v 3.840721 6.187468 0.000000
v 3.136578 4.568081 0.000000
v 1.818125 2.948695 0.000000
v 0.586720 1.329308 0.000000
v -3.840721 14.284401 0.000000
v -3.840721 12.665014 0.000000
v -3.840721 11.045628 0.000000
v -3.840721 9.426241 0.000000
v -3.840721 7.806855 0.000000
v -3.840721 6.187468 0.000000
v -3.136578 4.568081 0.000000
v -1.818125 2.948695 0.000000
v -0.586720 1.329308 0.000000
v -1.399266 15.751850 1.399266
v -0.000000 1.329308 0.000000
v 2.099409 0.016219 2.740223
v 2.099409 6.187468 2.740223
v 2.099409 0.016219 2.099408
v 2.099409 6.187468 2.099408
v 2.740223 0.016219 2.740223
v 2.740223 6.187468 2.740223
v 2.740223 0.016219 2.099408
v 2.740223 6.187468 2.099408
v 2.740223 6.187468 -2.740223
v 2.740223 0.016219 -2.740223
v 2.740223 6.187468 -2.099408
v 2.740223 0.016219 -2.099408
v 2.099409 6.187468 -2.740223
v 2.099409 0.016219 -2.740223
v 2.099409 6.187468 -2.099408
v 2.099409 0.016219 -2.099408
v -1.988329 5.976320 2.947340
v -1.988329 8.301237 2.947340
v -1.988329 5.976320 4.263453
v -1.988329 8.301237 4.263453
v 1.988329 5.976320 2.947340
v 1.988329 8.301237 2.947340
v 1.988329 5.976320 4.263453
v 1.988329 8.301237 4.263453
v -0.000000 7.891501 4.177274
v -0.000000 7.891501 4.560276
v 0.182128 7.759177 4.177274
v 0.182128 7.759177 4.560276
v 0.112562 7.545073 4.177274
v 0.112562 7.545073 4.560276
v -0.112562 7.545073 4.177274
v -0.112562 7.545073 4.560276
v -0.182128 7.759177 4.177274
v -0.182128 7.759177 4.560276
v -1.399266 15.751850 -1.399266
v 1.399266 15.751850 -1.399266
v 1.399266 15.751850 1.399266
v 0.000000 15.751850 1.961224
v 0.000000 15.751850 -1.961224
v 1.961224 15.751850 0.000000
v -1.961224 15.751850 0.000000
v 2.099409 2.948695 2.740223
v 2.099409 4.568081 2.740223
v 2.099409 4.568081 2.099408
v 2.099409 2.948695 2.099408
v 2.740223 4.568081 2.099408
v 2.740223 2.948695 2.099408
v 2.740223 4.568081 2.740223
v 2.740223 2.948695 2.740223
v 2.099409 1.335833 2.099408
v 2.740223 1.335833 2.099408
v 2.740223 1.335833 2.740223
v 2.099409 1.335833 2.740223
v 2.099409 2.948695 -2.099408
v 2.099409 4.568081 -2.099408
v 2.099409 4.568081 -2.740223
v 2.099409 2.948695 -2.740223
v 2.740223 4.568081 -2.740223
v 2.740223 2.948695 -2.740223
v 2.740223 4.568081 -2.099408
v 2.740223 2.948695 -2.099408
v 2.099409 1.335833 -2.740223
v 2.740223 1.335833 -2.740223
v 2.740223 1.335833 -2.099408
v 2.099409 1.335833 -2.099408
v -2.740223 0.016219 2.740223
v -2.740223 6.187468 2.740223
v -2.740223 0.016219 2.099408
v -2.740223 6.187468 2.099408
v -2.099409 0.016219 2.740223
v -2.099409 6.187468 2.740223
v -2.099409 0.016219 2.099408
v -2.099409 6.187468 2.099408
v -2.740223 2.948695 2.740223
v -2.740223 4.568081 2.740223
v -2.740223 4.568081 2.099408
v -2.740223 2.948695 2.099408
v -2.099409 4.568081 2.099408
v -2.099409 2.948695 2.099408
v -2.099409 4.568081 2.740223
v -2.099409 2.948695 2.740223
v -2.740223 1.335833 2.099408
v -2.099409 1.335833 2.099408
v -2.099409 1.335833 2.740223
v -2.740223 1.335833 2.740223
v -2.740223 0.016219 -2.099409
v -2.740223 6.187468 -2.099409
v -2.740223 0.016219 -2.740224
v -2.740223 6.187468 -2.740224
v -2.099409 0.016219 -2.099409
v -2.099409 6.187468 -2.099409
v -2.099409 0.016219 -2.740224
v -2.099409 6.187468 -2.740224
v -2.740223 2.948695 -2.099409
v -2.740223 4.568081 -2.099409
v -2.740223 4.568081 -2.740224
v -2.740223 2.948695 -2.740224
v -2.099409 4.568081 -2.740224
v -2.099409 2.948695 -2.740224
v -2.099409 4.568081 -2.099409
v -2.099409 2.948695 -2.099409
v -2.740223 1.335833 -2.740224
v -2.099409 1.335833 -2.740224
v -2.099409 1.335833 -2.099409
v -2.740223 1.335833 -2.099409
vt 1.000000 0.000000
vt 1.000000 1.000000
vt 0.000000 1.000000
vt 0.000000 0.000000
vt 1.000000 0.833333
vt 0.500000 1.000000
vt 0.975528 0.654508
vt 0.793893 0.095491
vt 0.024472 0.654509
vt 0.206107 0.095492
vt 1.000000 0.333333
vt 0.000000 0.333333
vt 1.000000 0.666667
vt 0.000000 0.666667
vt 0.000000 0.833333
vn 0.506700 -0.697500 0.506700
vn -0.219100 0.301500 0.928000
vn -0.587800 0.809000 0.000000
vn -0.219100 0.301500 -0.928000
vn 0.506700 -0.697500 -0.506700
vn 0.819900 0.266400 0.506700
vn -0.354400 -0.115200 0.928000
vn -0.951100 -0.309000 0.000000
vn -0.354400 -0.115200 -0.928000
vn 0.819900 0.266400 -0.506700
vn 0.000000 0.862100 0.506700
vn 0.000000 -0.372700 0.928000
vn 0.000000 -1.000000 0.000000
vn 0.000000 -0.372700 -0.928000
vn 0.000000 0.862100 -0.506700
vn -0.819900 0.266400 0.506700
vn 0.354400 -0.115200 0.928000
vn 0.951100 -0.309000 0.000000
vn 0.354400 -0.115200 -0.928000
vn -0.819900 0.266400 -0.506700
vn -0.506700 -0.697500 0.506700
vn 0.219100 0.301500 0.928000
vn 0.587800 0.809000 0.000000
vn 0.219100 0.301500 -0.928000
vn -0.506700 -0.697500 -0.506700
vn -0.372700 0.000000 0.928000
vn -0.345600 -0.374200 0.860500
vn -0.297400 -0.602800 0.740400
vn -0.304500 -0.576500 0.758200
vn 0.928000 0.000000 0.372700
vn 0.860500 -0.374200 0.345600
vn 0.740400 -0.602800 0.297400
vn 0.758200 -0.576500 0.304500
vn 0.372700 0.000000 -0.928000
vn 0.345600 -0.374200 -0.860500
vn 0.297400 -0.602800 -0.740400
vn 0.304500 -0.576500 -0.758200
vn -0.928000 0.000000 -0.372700
vn -0.860500 -0.374200 -0.345600
vn -0.740400 -0.602800 -0.297400
vn -0.758200 -0.576500 -0.304500
vn -0.304500 -0.576500 -0.758200
vn -0.297400 -0.602800 -0.740400
vn -0.345600 -0.374200 -0.860500
vn -0.372700 0.000000 -0.928000
vn 0.304500 -0.576500 0.758200
vn 0.297400 -0.602800 0.740400
vn 0.345600 -0.374200 0.860500
vn 0.372700 0.000000 0.928000
vn -0.758200 -0.576500 0.304500
vn -0.740400 -0.602800 0.297400
vn -0.860500 -0.374200 0.345600
vn -0.928000 0.000000 0.372700
vn 0.758200 -0.576500 -0.304500
vn 0.740400 -0.602800 -0.297400
vn 0.860500 -0.374200 -0.345600
vn 0.928000 0.000000 -0.372700
vn 0.239900 0.765200 0.597400
vn 0.597400 0.765200 0.239900
vn -0.239900 0.765200 0.597400
vn -0.597400 0.765200 -0.239900
vn 0.239900 0.765200 -0.597400
vn 0.597400 0.765200 -0.239900
vn -0.239900 0.765200 -0.597400
vn -0.597400 0.765200 0.239900
vn -1.000000 0.000000 0.000000
vn 0.000000 0.000000 -1.000000
vn 1.000000 0.000000 0.000000
vn 0.000000 0.000000 1.000000
vn 0.000000 1.000000 0.000000
vn -0.354500 -0.115200 0.928000
vn 0.354500 -0.115200 -0.928000
s off
f 6/1/1 7/2/1 2/3/1
f 7/1/2 8/2/2 3/3/2
f 8/1/3 9/2/3 4/3/3
f 9/1/4 10/2/4 5/3/4
f 5/1/5 10/2/5 6/3/5
f 11/1/6 12/2/6 7/3/6
f 12/1/7 13/2/7 8/3/7
f 13/1/8 14/2/8 9/3/8
f 14/1/9 15/2/9 10/3/9
f 15/1/10 11/2/10 6/3/10
f 16/1/11 17/2/11 12/3/11
f 17/1/12 18/2/12 13/3/12
f 18/1/13 19/2/13 14/3/13
f 14/4/14 19/1/14 20/2/14
f 20/1/15 16/2/15 11/3/15
f 16/4/16 21/1/16 22/2/16
f 17/4/17 22/1/17 23/2/17
f 23/1/18 24/2/18 19/3/18
f 24/1/19 25/2/19 20/3/19
f 25/1/20 21/2/20 16/3/20
f 21/4/21 1/1/21 2/2/21
f 2/1/22 3/2/22 23/3/22
f 3/1/23 4/2/23 24/3/23
f 4/1/24 5/2/24 25/3/24
f 5/1/25 1/2/25 21/3/25
f 34/1/26 33/2/26 63/3/26
f 33/1/26 32/2/26 64/3/26
f 64/4/26 32/1/26 31/2/26
f 65/4/26 31/1/26 30/2/26
f 30/1/26 29/2/26 67/3/26
f 67/4/27 29/1/27 28/2/27
f 68/4/28 28/1/28 27/2/28
f 69/4/29 27/1/29 26/2/29
f 53/1/30 54/2/30 81/3/30
f 54/1/30 55/2/30 82/3/30
f 55/1/30 56/2/30 83/3/30
f 56/1/30 57/2/30 84/3/30
f 57/1/30 58/2/30 85/3/30
f 85/4/31 58/1/31 59/2/31
f 86/4/32 59/1/32 60/2/32
f 87/4/33 60/1/33 61/2/33
f 44/1/34 45/2/34 72/3/34
f 45/1/34 46/2/34 73/3/34
f 46/1/34 47/2/34 74/3/34
f 47/1/34 48/2/34 75/3/34
f 48/1/34 49/2/34 76/3/34
f 76/4/35 49/1/35 50/2/35
f 77/4/36 50/1/36 51/2/36
f 78/4/37 51/1/37 52/2/37
f 35/1/38 36/2/38 90/3/38
f 36/1/38 37/2/38 91/3/38
f 37/1/38 38/2/38 92/3/38
f 38/1/38 39/2/38 93/3/38
f 39/1/38 40/2/38 94/3/38
f 94/4/39 40/1/39 41/2/39
f 95/4/40 41/1/40 42/2/40
f 96/4/41 42/1/41 43/2/41
f 78/1/42 79/2/42 43/3/42
f 77/1/43 78/2/43 42/3/43
f 76/1/44 77/2/44 41/3/44
f 75/1/45 76/2/45 40/3/45
f 74/1/45 75/2/45 39/3/45
f 73/1/45 74/2/45 38/3/45
f 72/1/45 73/2/45 37/3/45
f 71/1/45 72/2/45 36/3/45
f 69/1/46 70/2/46 61/3/46
f 68/1/47 69/2/47 60/3/47
f 67/1/48 68/2/48 59/3/48
f 66/1/49 67/2/49 58/3/49
f 65/1/49 66/2/49 57/3/49
f 64/1/49 65/2/49 56/3/49
f 63/1/49 64/2/49 55/3/49
f 62/1/49 63/2/49 54/3/49
f 96/1/50 97/2/50 26/3/50
f 95/1/51 96/2/51 27/3/51
f 94/1/52 95/2/52 28/3/52
f 93/1/53 94/2/53 29/3/53
f 92/1/53 93/2/53 30/3/53
f 91/1/53 92/2/53 31/3/53
f 90/1/53 91/2/53 32/3/53
f 89/1/53 90/2/53 33/3/53
f 87/1/54 88/2/54 52/3/54
f 86/1/55 87/2/55 51/3/55
f 85/1/56 86/2/56 50/3/56
f 84/1/57 85/2/57 49/3/57
f 83/1/57 84/2/57 48/3/57
f 82/1/57 83/2/57 47/3/57
f 81/1/57 82/2/57 46/3/57
f 80/1/57 81/2/57 45/3/57
f 99/1/13 70/2/13 26/3/13
f 99/1/13 88/2/13 61/3/13
f 52/4/13 88/1/13 99/2/13
f 99/1/13 97/2/13 43/3/13
f 62/4/58 53/1/58 136/2/58
f 80/1/59 139/2/59 136/3/59
f 62/1/60 137/2/60 98/3/60
f 89/1/61 140/2/61 134/3/61
f 71/1/62 138/2/62 135/3/62
f 80/4/63 44/1/63 135/2/63
f 71/4/64 35/1/64 134/2/64
f 89/4/65 34/1/65 98/2/65
f 149/5/66 102/2/66 100/3/66
f 150/5/67 106/2/67 102/3/67
f 151/5/68 104/2/68 106/3/68
f 152/5/69 100/2/69 104/3/69
f 102/1/13 106/2/13 104/3/13
f 107/1/70 103/2/70 101/3/70
f 113/1/13 109/2/13 111/3/13
f 162/5/67 109/2/67 113/3/67
f 161/5/66 113/2/66 115/3/66
f 108/1/70 112/2/70 114/3/70
f 164/5/69 115/2/69 111/3/69
f 163/5/68 111/2/68 109/3/68
f 116/1/66 118/2/66 119/3/66
f 118/1/69 122/2/69 123/3/69
f 122/1/68 120/2/68 121/3/68
f 120/1/67 116/2/67 117/3/67
f 120/1/13 122/2/13 118/3/13
f 117/1/70 119/2/70 123/3/70
f 125/1/23 127/2/23 126/3/23
f 127/1/18 129/2/18 128/3/18
f 129/1/13 131/2/13 130/3/13
f 127/6/69 125/7/69 133/8/69
f 133/1/3 125/2/3 124/3/3
f 131/1/8 133/2/8 132/3/8
f 132/9/67 126/7/67 130/10/67
f 139/4/70 140/1/70 137/2/70
f 140/4/70 138/1/70 134/2/70
f 138/4/70 139/1/70 135/2/70
f 139/4/70 137/1/70 136/2/70
f 137/4/70 140/1/70 98/2/70
f 140/4/70 139/1/70 138/2/70
f 101/1/69 142/11/69 147/12/69
f 142/11/69 141/13/69 148/14/69
f 105/1/68 147/11/68 145/12/68
f 147/11/68 148/13/68 146/14/68
f 107/1/67 145/11/67 143/12/67
f 145/11/67 146/13/67 144/14/67
f 103/1/66 143/11/66 142/12/66
f 143/11/66 144/13/66 141/14/66
f 141/13/69 152/5/69 151/15/69
f 148/13/68 151/5/68 150/15/68
f 146/13/67 150/5/67 149/15/67
f 144/13/66 149/5/66 152/15/66
f 114/1/69 154/11/69 159/12/69
f 154/11/69 153/13/69 160/14/69
f 110/1/68 159/11/68 157/12/68
f 159/11/68 160/13/68 158/14/68
f 108/1/67 157/11/67 155/12/67
f 157/11/67 158/13/67 156/14/67
f 112/1/66 155/11/66 154/12/66
f 155/11/66 156/13/66 153/14/66
f 153/13/69 164/5/69 163/15/69
f 160/13/68 163/5/68 162/15/68
f 158/13/67 162/5/67 161/15/67
f 156/13/66 161/5/66 164/15/66
f 181/5/66 167/2/66 165/3/66
f 182/5/67 171/2/67 167/3/67
f 183/5/68 169/2/68 171/3/68
f 184/5/69 165/2/69 169/3/69
f 167/1/13 171/2/13 169/3/13
f 172/1/70 168/2/70 166/3/70
f 166/1/69 174/11/69 179/12/69
f 174/11/69 173/13/69 180/14/69
f 170/1/68 179/11/68 177/12/68
f 179/11/68 180/13/68 178/14/68
f 172/1/67 177/11/67 175/12/67
f 177/11/67 178/13/67 176/14/67
f 168/1/66 175/11/66 174/12/66
f 175/11/66 176/13/66 173/14/66
f 173/13/69 184/5/69 183/15/69
f 180/13/68 183/5/68 182/15/68
f 178/13/67 182/5/67 181/15/67
f 176/13/66 181/5/66 184/15/66
f 201/5/66 187/2/66 185/3/66
f 202/5/67 191/2/67 187/3/67
f 203/5/68 189/2/68 191/3/68
f 204/5/69 185/2/69 189/3/69
f 187/1/13 191/2/13 189/3/13
f 192/1/70 188/2/70 186/3/70
f 186/1/69 194/11/69 199/12/69
f 194/11/69 193/13/69 200/14/69
f 190/1/68 199/11/68 197/12/68
f 199/11/68 200/13/68 198/14/68
f 192/1/67 197/11/67 195/12/67
f 197/11/67 198/13/67 196/14/67
f 188/1/66 195/11/66 194/12/66
f 195/11/66 196/13/66 193/14/66
f 193/13/69 204/5/69 203/15/69
f 200/13/68 203/5/68 202/15/68
f 198/13/67 202/5/67 201/15/67
f 196/13/66 201/5/66 204/15/66
f 1/4/1 6/1/1 2/3/1
f 2/4/2 7/1/2 3/3/2
f 3/4/3 8/1/3 4/3/3
f 4/4/4 9/1/4 5/3/4
f 1/4/5 5/1/5 6/3/5
f 6/4/6 11/1/6 7/3/6
f 7/4/71 12/1/71 8/3/71
f 8/4/8 13/1/8 9/3/8
f 9/4/9 14/1/9 10/3/9
f 10/4/10 15/1/10 6/3/10
f 11/4/11 16/1/11 12/3/11
f 12/4/12 17/1/12 13/3/12
f 13/4/13 18/1/13 14/3/13
f 15/3/14 14/4/14 20/2/14
f 15/4/15 20/1/15 11/3/15
f 17/3/16 16/4/16 22/2/16
f 18/3/17 17/4/17 23/2/17
f 18/4/18 23/1/18 19/3/18
f 19/4/72 24/1/72 20/3/72
f 20/4/20 25/1/20 16/3/20
f 22/3/21 21/4/21 2/2/21
f 22/4/22 2/1/22 23/3/22
f 23/4/23 3/1/23 24/3/23
f 24/4/24 4/1/24 25/3/24
f 25/4/25 5/1/25 21/3/25
f 62/4/26 34/1/26 63/3/26
f 63/4/26 33/1/26 64/3/26
f 65/3/26 64/4/26 31/2/26
f 66/3/26 65/4/26 30/2/26
f 66/4/26 30/1/26 67/3/26
f 68/3/27 67/4/27 28/2/27
f 69/3/28 68/4/28 27/2/28
f 70/3/29 69/4/29 26/2/29
f 80/4/30 53/1/30 81/3/30
f 81/4/30 54/1/30 82/3/30
f 82/4/30 55/1/30 83/3/30
f 83/4/30 56/1/30 84/3/30
f 84/4/30 57/1/30 85/3/30
f 86/3/31 85/4/31 59/2/31
f 87/3/32 86/4/32 60/2/32
f 88/3/33 87/4/33 61/2/33
f 71/4/34 44/1/34 72/3/34
f 72/4/34 45/1/34 73/3/34
f 73/4/34 46/1/34 74/3/34
f 74/4/34 47/1/34 75/3/34
f 75/4/34 48/1/34 76/3/34
f 77/3/35 76/4/35 50/2/35
f 78/3/36 77/4/36 51/2/36
f 79/3/37 78/4/37 52/2/37
f 89/4/38 35/1/38 90/3/38
f 90/4/38 36/1/38 91/3/38
f 91/4/38 37/1/38 92/3/38
f 92/4/38 38/1/38 93/3/38
f 93/4/38 39/1/38 94/3/38
f 95/3/39 94/4/39 41/2/39
f 96/3/40 95/4/40 42/2/40
f 97/3/41 96/4/41 43/2/41
f 42/4/42 78/1/42 43/3/42
f 41/4/43 77/1/43 42/3/43
f 40/4/44 76/1/44 41/3/44
f 39/4/45 75/1/45 40/3/45
f 38/4/45 74/1/45 39/3/45
f 37/4/45 73/1/45 38/3/45
f 36/4/45 72/1/45 37/3/45
f 35/4/45 71/1/45 36/3/45
f 60/4/46 69/1/46 61/3/46
f 59/4/47 68/1/47 60/3/47
f 58/4/48 67/1/48 59/3/48
f 57/4/49 66/1/49 58/3/49
f 56/4/49 65/1/49 57/3/49
f 55/4/49 64/1/49 56/3/49
f 54/4/49 63/1/49 55/3/49
f 53/4/49 62/1/49 54/3/49
f 27/4/50 96/1/50 26/3/50
f 28/4/51 95/1/51 27/3/51
f 29/4/52 94/1/52 28/3/52
f 30/4/53 93/1/53 29/3/53
f 31/4/53 92/1/53 30/3/53
f 32/4/53 91/1/53 31/3/53
f 33/4/53 90/1/53 32/3/53
f 34/4/53 89/1/53 33/3/53
f 51/4/54 87/1/54 52/3/54
f 50/4/55 86/1/55 51/3/55
f 49/4/56 85/1/56 50/3/56
f 48/4/57 84/1/57 49/3/57
f 47/4/57 83/1/57 48/3/57
f 46/4/57 82/1/57 47/3/57
f 45/4/57 81/1/57 46/3/57
f 44/4/57 80/1/57 45/3/57
f 97/4/13 99/1/13 26/3/13
f 70/4/13 99/1/13 61/3/13
f 79/3/13 52/4/13 99/2/13
f 79/4/13 99/1/13 43/3/13
f 137/3/58 62/4/58 136/2/58
f 53/4/59 80/1/59 136/3/59
f 34/4/60 62/1/60 98/3/60
f 35/4/61 89/1/61 134/3/61
f 44/4/62 71/1/62 135/3/62
f 139/3/63 80/4/63 135/2/63
f 138/3/64 71/4/64 134/2/64
f 140/3/65 89/4/65 98/2/65
f 152/15/66 149/5/66 100/3/66
f 149/15/67 150/5/67 102/3/67
f 150/15/68 151/5/68 106/3/68
f 151/15/69 152/5/69 104/3/69
f 100/4/13 102/1/13 104/3/13
f 105/4/70 107/1/70 101/3/70
f 115/4/13 113/1/13 111/3/13
f 161/15/67 162/5/67 113/3/67
f 164/15/66 161/5/66 115/3/66
f 110/4/70 108/1/70 114/3/70
f 163/15/69 164/5/69 111/3/69
f 162/15/68 163/5/68 109/3/68
f 117/4/66 116/1/66 119/3/66
f 119/4/69 118/1/69 123/3/69
f 123/4/68 122/1/68 121/3/68
f 121/4/67 120/1/67 117/3/67
f 116/4/13 120/1/13 118/3/13
f 121/4/70 117/1/70 123/3/70
f 124/4/23 125/1/23 126/3/23
f 126/4/18 127/1/18 128/3/18
f 128/4/13 129/1/13 130/3/13
f 131/10/69 129/9/69 127/6/69
f 127/6/69 133/8/69 131/10/69
f 132/4/3 133/1/3 124/3/3
f 130/4/8 131/1/8 132/3/8
f 126/7/67 132/9/67 124/6/67
f 126/7/67 128/8/67 130/10/67
f 105/4/69 101/1/69 147/12/69
f 147/12/69 142/11/69 148/14/69
f 107/4/68 105/1/68 145/12/68
f 145/12/68 147/11/68 146/14/68
f 103/4/67 107/1/67 143/12/67
f 143/12/67 145/11/67 144/14/67
f 101/4/66 103/1/66 142/12/66
f 142/12/66 143/11/66 141/14/66
f 148/14/69 141/13/69 151/15/69
f 146/14/68 148/13/68 150/15/68
f 144/14/67 146/13/67 149/15/67
f 141/14/66 144/13/66 152/15/66
f 110/4/69 114/1/69 159/12/69
f 159/12/69 154/11/69 160/14/69
f 108/4/68 110/1/68 157/12/68
f 157/12/68 159/11/68 158/14/68
f 112/4/67 108/1/67 155/12/67
f 155/12/67 157/11/67 156/14/67
f 114/4/66 112/1/66 154/12/66
f 154/12/66 155/11/66 153/14/66
f 160/14/69 153/13/69 163/15/69
f 158/14/68 160/13/68 162/15/68
f 156/14/67 158/13/67 161/15/67
f 153/14/66 156/13/66 164/15/66
f 184/15/66 181/5/66 165/3/66
f 181/15/67 182/5/67 167/3/67
f 182/15/68 183/5/68 171/3/68
f 183/15/69 184/5/69 169/3/69
f 165/4/13 167/1/13 169/3/13
f 170/4/70 172/1/70 166/3/70
f 170/4/69 166/1/69 179/12/69
f 179/12/69 174/11/69 180/14/69
f 172/4/68 170/1/68 177/12/68
f 177/12/68 179/11/68 178/14/68
f 168/4/67 172/1/67 175/12/67
f 175/12/67 177/11/67 176/14/67
f 166/4/66 168/1/66 174/12/66
f 174/12/66 175/11/66 173/14/66
f 180/14/69 173/13/69 183/15/69
f 178/14/68 180/13/68 182/15/68
f 176/14/67 178/13/67 181/15/67
f 173/14/66 176/13/66 184/15/66
f 204/15/66 201/5/66 185/3/66
f 201/15/67 202/5/67 187/3/67
f 202/15/68 203/5/68 191/3/68
f 203/15/69 204/5/69 189/3/69
f 185/4/13 187/1/13 189/3/13
f 190/4/70 192/1/70 186/3/70
f 190/4/69 186/1/69 199/12/69
f 199/12/69 194/11/69 200/14/69
f 192/4/68 190/1/68 197/12/68
f 197/12/68 199/11/68 198/14/68
f 188/4/67 192/1/67 195/12/67
f 195/12/67 197/11/67 196/14/67
f 186/4/66 188/1/66 194/12/66
f 194/12/66 195/11/66 193/14/66
f 200/14/69 193/13/69 203/15/69
f 198/14/68 200/13/68 202/15/68
f 196/14/67 198/13/67 201/15/67
f 193/14/66 196/13/66 204/15/66
