# Blender v2.75 (sub 0) OBJ File: 'BrightBeerVessel.blend'
# www.blender.org
v 0.000000 2.429686 4.258827
v 0.000000 2.602432 4.496591
v 0.000000 2.881940 4.405773
v 0.000000 2.881940 4.111881
v 0.000000 2.602432 4.021063
v 1.188821 3.293415 4.258827
v 1.024530 3.346796 4.496591
v 0.758701 3.433169 4.405773
v 0.758701 3.433169 4.111881
v 1.024530 3.346796 4.021063
v 0.734731 4.690958 4.258827
v 0.633194 4.551203 4.496591
v 0.468903 4.325076 4.405773
v 0.468903 4.325076 4.111881
v 0.633194 4.551203 4.021063
v -0.734731 4.690958 4.258827
v -0.633194 4.551203 4.496591
v -0.468903 4.325076 4.405773
v -0.468903 4.325076 4.111881
v -0.633194 4.551203 4.021063
v -1.188821 3.293415 4.258827
v -1.024530 3.346796 4.496592
v -0.758701 3.433169 4.405774
v -0.758701 3.433169 4.111881
v -1.024530 3.346796 4.021063
v -2.237842 1.480216 2.237842
v -2.740223 3.099603 2.740223
v -2.740223 4.718990 2.740223
v -2.740223 6.338377 2.740223
v -2.740223 7.957763 2.740223
v -2.740223 9.577149 2.740223
v -2.740223 11.196536 2.740223
v -2.740223 11.196536 -2.740223
v -2.740223 9.577149 -2.740223
v -2.740223 7.957763 -2.740223
v -2.740223 6.338377 -2.740223
v -2.740223 4.718990 -2.740223
v -2.740223 3.099603 -2.740223
v -2.237842 1.480216 -2.237842
v 2.740223 11.196536 -2.740223
v 2.740223 9.577149 -2.740223
v 2.740223 7.957763 -2.740223
v 2.740223 6.338377 -2.740223
v 2.740223 4.718990 -2.740223
v 2.740223 3.099603 -2.740223
v 2.237842 1.480216 -2.237842
v 2.740223 11.196536 2.740223
v 2.740223 9.577149 2.740223
v 2.740223 7.957763 2.740223
v 2.740223 6.338377 2.740223
v 2.740223 4.718990 2.740223
v 2.740223 3.099603 2.740223
v 2.237842 1.480216 2.237842
v 0.000000 11.196536 3.840721
v 0.000000 9.577149 3.840721
v 0.000000 7.957763 3.840721
v 0.000000 6.338377 3.840721
v 0.000000 4.718990 3.840721
v 0.000000 3.099603 3.840721
v -0.000000 1.480216 3.136578
v 0.000000 11.196536 -3.840721
v 0.000000 9.577149 -3.840721
v 0.000000 7.957763 -3.840721
v 0.000000 6.338377 -3.840721
v 0.000000 4.718990 -3.840721
v 0.000000 3.099603 -3.840721
v -0.000000 1.480216 -3.136578
v 3.840721 11.196536 0.000000
v 3.840721 9.577149 0.000000
v 3.840721 7.957763 0.000000
v 3.840721 6.338377 0.000000
v 3.840721 4.718990 0.000000
v 3.840721 3.099603 0.000000
v 3.136578 1.480216 0.000000
v -3.840721 11.196536 0.000000
v -3.840721 9.577149 0.000000
v -3.840721 7.957763 0.000000
v -3.840721 6.338377 0.000000
v -3.840721 4.718990 0.000000
v -3.840721 3.099603 0.000000
v -3.136578 1.480216 0.000000
v -1.399266 12.663984 1.399266
v 2.223469 -0.018018 2.616163
v 2.223469 3.099603 2.616163
v 2.223469 -0.018018 2.223469
v 2.223469 3.099603 2.223469
v 2.616163 -0.018018 2.616163
v 2.616163 3.099603 2.616163
v 2.616163 -0.018018 2.223469
v 2.616163 3.099603 2.223469
v -2.616163 -0.018018 2.616163
v -2.616163 3.099603 2.616163
v -2.616163 -0.018018 2.223469
v -2.616163 3.099603 2.223469
v -2.223469 -0.018018 2.616163
v -2.223469 3.099603 2.616163
v -2.223469 -0.018018 2.223469
v -2.223469 3.099603 2.223469
v 2.223469 -0.018018 -2.223469
v 2.223469 3.099603 -2.223469
v 2.223469 -0.018018 -2.616163
v 2.223469 3.099603 -2.616163
v 2.616163 -0.018018 -2.223469
v 2.616163 3.099603 -2.223469
v 2.616163 -0.018018 -2.616163
v 2.616163 3.099603 -2.616163
v -2.616163 -0.018018 -2.223469
v -2.616163 3.099603 -2.223469
v -2.616163 -0.018018 -2.616163
v -2.616163 3.099603 -2.616163
v -2.223469 -0.018018 -2.223469
v -2.223469 3.099603 -2.223469
v -2.223469 -0.018018 -2.616163
v -2.223469 3.099603 -2.616163
v -0.000000 3.871187 3.702988
v -0.000000 3.871187 4.085990
v 0.182128 3.738863 3.702988
v 0.182128 3.738863 4.085990
v 0.112562 3.524758 3.702988
v 0.112562 3.524758 4.085990
v -0.112562 3.524758 3.702988
v -0.112562 3.524758 4.085990
v -0.182128 3.738863 3.702988
v -0.182128 3.738863 4.085990
v -1.399266 12.663984 -1.399266
v 1.399266 12.663984 -1.399266
v 1.399266 12.663984 1.399266
v 0.000000 12.663984 1.961224
v 0.000000 12.663984 -1.961224
v 1.961224 12.663984 0.000000
v -1.961224 12.663984 0.000000
v -2.616163 1.480216 2.616163
v -2.616163 1.480216 2.223469
v -2.223469 1.480216 2.223469
v -2.223469 1.480216 2.616163
v 2.223469 1.480216 2.616163
v 2.223469 1.480216 2.223469
v 2.616163 1.480216 2.223469
v 2.616163 1.480216 2.616163
v 2.223469 1.480216 -2.223469
v 2.223469 1.480216 -2.616163
v 2.616163 1.480216 -2.616163
v 2.616163 1.480216 -2.223469
v -2.616163 1.480216 -2.223469
v -2.616163 1.480216 -2.616163
v -2.223469 1.480216 -2.616163
v -2.223469 1.480216 -2.223469
vt 1.000000 1.000000
vt 1.000000 0.000000
vt 0.000000 1.000000
vt 0.000000 0.000000
vt 1.000000 0.500000
vt 0.500000 1.000000
vt 0.975528 0.654508
vt 0.206107 0.095492
vt 0.000000 0.500000
vt 0.024472 0.654509
vt 0.793893 0.095491
vn 0.000000 -1.000000 0.000000
vn 0.506700 -0.697500 0.506700
vn -0.219100 0.301500 0.928000
vn -0.587800 0.809000 0.000000
vn -0.219100 0.301500 -0.928000
vn 0.506700 -0.697500 -0.506700
vn 0.819900 0.266400 0.506700
vn -0.354500 -0.115200 0.928000
vn -0.951100 -0.309000 0.000000
vn -0.354400 -0.115200 -0.928000
vn 0.819900 0.266400 -0.506700
vn 0.000000 0.862100 0.506700
vn 0.000000 -0.372700 0.928000
vn 0.000000 -0.372700 -0.928000
vn 0.000000 0.862100 -0.506700
vn -0.819900 0.266400 0.506700
vn 0.354400 -0.115200 0.928000
vn 0.951100 -0.309000 0.000000
vn 0.354500 -0.115200 -0.928000
vn -0.819900 0.266400 -0.506700
vn -0.506700 -0.697500 0.506700
vn 0.219100 0.301500 0.928000
vn 0.587800 0.809000 0.000000
vn 0.219100 0.301500 -0.928000
vn -0.506700 -0.697500 -0.506700
vn -0.372700 0.000000 0.928000
vn -0.345600 -0.374200 0.860500
vn 0.928000 0.000000 0.372700
vn 0.860500 -0.374200 0.345600
vn 0.372700 0.000000 -0.928000
vn 0.345600 -0.374200 -0.860500
vn -0.928000 0.000000 -0.372700
vn -0.860500 -0.374200 -0.345600
vn -0.345600 -0.374200 -0.860500
vn -0.372700 0.000000 -0.928000
vn 0.345600 -0.374200 0.860500
vn 0.372700 0.000000 0.928000
vn -0.860500 -0.374200 0.345600
vn -0.928000 0.000000 0.372700
vn 0.860500 -0.374200 -0.345600
vn 0.928000 0.000000 -0.372700
vn 0.239900 0.765200 0.597400
vn 0.597400 0.765200 0.239900
vn -0.239900 0.765200 0.597400
vn -0.597400 0.765200 -0.239900
vn 0.239900 0.765200 -0.597400
vn 0.597400 0.765200 -0.239900
vn -0.239900 0.765200 -0.597400
vn -0.597400 0.765200 0.239900
vn -1.000000 0.000000 0.000000
vn 0.000000 0.000000 -1.000000
vn 1.000000 0.000000 0.000000
vn 0.000000 0.000000 1.000000
vn 0.000000 1.000000 0.000000
vn -0.354400 -0.115200 0.928000
vn -0.354500 -0.115200 -0.928000
vn 0.354400 -0.115200 -0.928000
s off
f 60/1/1 81/1/1 67/1/1
f 74/1/1 53/1/1 60/1/1
f 67/1/1 46/1/1 74/1/1
f 81/1/1 39/1/1 67/1/1
f 60/1/1 26/1/1 81/1/1
f 67/1/1 74/1/1 60/1/1
f 6/2/2 7/1/2 2/3/2
f 2/4/3 7/2/3 8/1/3
f 8/2/4 9/1/4 4/3/4
f 9/2/5 10/1/5 5/3/5
f 5/2/6 10/1/6 6/3/6
f 11/2/7 12/1/7 7/3/7
f 12/2/8 13/1/8 8/3/8
f 13/2/9 14/1/9 9/3/9
f 9/4/10 14/2/10 15/1/10
f 15/2/11 11/1/11 6/3/11
f 11/4/12 16/2/12 17/1/12
f 17/2/13 18/1/13 13/3/13
f 18/2/1 19/1/1 14/3/1
f 14/4/14 19/2/14 20/1/14
f 20/2/15 16/1/15 11/3/15
f 21/2/16 22/1/16 17/3/16
f 17/4/17 22/2/17 23/1/17
f 18/4/18 23/2/18 24/1/18
f 24/2/19 25/1/19 20/3/19
f 25/2/20 21/1/20 16/3/20
f 1/2/21 2/1/21 22/3/21
f 2/2/22 3/1/22 23/3/22
f 3/2/23 4/1/23 24/3/23
f 4/2/24 5/1/24 25/3/24
f 5/2/25 1/1/25 21/3/25
f 32/2/26 31/1/26 55/3/26
f 31/2/26 30/1/26 56/3/26
f 30/2/26 29/1/26 57/3/26
f 29/2/26 28/1/26 58/3/26
f 28/2/26 27/1/26 59/3/26
f 59/4/27 27/2/27 26/1/27
f 47/2/28 48/1/28 69/3/28
f 48/2/28 49/1/28 70/3/28
f 49/2/28 50/1/28 71/3/28
f 50/2/28 51/1/28 72/3/28
f 51/2/28 52/1/28 73/3/28
f 73/4/29 52/2/29 53/1/29
f 40/2/30 41/1/30 62/3/30
f 41/2/30 42/1/30 63/3/30
f 42/2/30 43/1/30 64/3/30
f 43/2/30 44/1/30 65/3/30
f 44/2/30 45/1/30 66/3/30
f 66/4/31 45/2/31 46/1/31
f 33/2/32 34/1/32 76/3/32
f 34/2/32 35/1/32 77/3/32
f 35/2/32 36/1/32 78/3/32
f 36/2/32 37/1/32 79/3/32
f 37/2/32 38/1/32 80/3/32
f 80/4/33 38/2/33 39/1/33
f 66/2/34 67/1/34 39/3/34
f 65/2/35 66/1/35 38/3/35
f 64/2/35 65/1/35 37/3/35
f 63/2/35 64/1/35 36/3/35
f 62/2/35 63/1/35 35/3/35
f 61/2/35 62/1/35 34/3/35
f 59/2/36 60/1/36 53/3/36
f 58/2/37 59/1/37 52/3/37
f 57/2/37 58/1/37 51/3/37
f 56/2/37 57/1/37 50/3/37
f 55/2/37 56/1/37 49/3/37
f 54/2/37 55/1/37 48/3/37
f 80/2/38 81/1/38 26/3/38
f 79/2/39 80/1/39 27/3/39
f 78/2/39 79/1/39 28/3/39
f 77/2/39 78/1/39 29/3/39
f 76/2/39 77/1/39 30/3/39
f 75/2/39 76/1/39 31/3/39
f 73/2/40 74/1/40 46/3/40
f 72/2/41 73/1/41 45/3/41
f 71/2/41 72/1/41 44/3/41
f 70/2/41 71/1/41 43/3/41
f 69/2/41 70/1/41 42/3/41
f 68/2/41 69/1/41 41/3/41
f 54/4/42 47/2/42 127/1/42
f 68/2/43 130/1/43 127/3/43
f 54/2/44 128/1/44 82/3/44
f 75/2/45 131/1/45 125/3/45
f 61/2/46 129/1/46 126/3/46
f 68/4/47 40/2/47 126/1/47
f 61/4/48 33/2/48 125/1/48
f 75/4/49 32/2/49 82/1/49
f 137/5/50 85/1/50 83/3/50
f 138/5/51 89/1/51 85/3/51
f 139/5/52 87/1/52 89/3/52
f 136/5/53 83/1/53 87/3/53
f 85/2/1 89/1/1 87/3/1
f 90/2/54 86/1/54 84/3/54
f 133/5/50 93/1/50 91/3/50
f 134/5/51 97/1/51 93/3/51
f 135/5/52 95/1/52 97/3/52
f 132/5/53 91/1/53 95/3/53
f 93/2/1 97/1/1 95/3/1
f 98/2/54 94/1/54 92/3/54
f 141/5/50 101/1/50 99/3/50
f 142/5/51 105/1/51 101/3/51
f 143/5/52 103/1/52 105/3/52
f 140/5/53 99/1/53 103/3/53
f 101/2/1 105/1/1 103/3/1
f 106/2/54 102/1/54 100/3/54
f 145/5/50 109/1/50 107/3/50
f 146/5/51 113/1/51 109/3/51
f 147/5/52 111/1/52 113/3/52
f 144/5/53 107/1/53 111/3/53
f 109/2/1 113/1/1 111/3/1
f 114/2/54 110/1/54 108/3/54
f 116/2/23 118/1/23 117/3/23
f 118/2/18 120/1/18 119/3/18
f 120/2/1 122/1/1 121/3/1
f 118/6/53 116/7/53 122/8/53
f 124/2/4 116/1/4 115/3/4
f 122/2/9 124/1/9 123/3/9
f 115/6/51 117/7/51 121/8/51
f 130/4/54 131/2/54 128/1/54
f 131/4/54 129/2/54 125/1/54
f 129/4/54 130/2/54 126/1/54
f 130/4/54 128/2/54 127/1/54
f 128/4/54 131/2/54 82/1/54
f 131/4/54 130/2/54 129/1/54
f 92/2/53 132/5/53 135/9/53
f 96/2/52 135/5/52 134/9/52
f 98/2/51 134/5/51 133/9/51
f 94/2/50 133/5/50 132/9/50
f 84/2/53 136/5/53 139/9/53
f 88/2/52 139/5/52 138/9/52
f 90/2/51 138/5/51 137/9/51
f 86/2/50 137/5/50 136/9/50
f 100/2/53 140/5/53 143/9/53
f 104/2/52 143/5/52 142/9/52
f 106/2/51 142/5/51 141/9/51
f 102/2/50 141/5/50 140/9/50
f 108/2/53 144/5/53 147/9/53
f 112/2/52 147/5/52 146/9/52
f 114/2/51 146/5/51 145/9/51
f 110/2/50 145/5/50 144/9/50
f 1/4/2 6/2/2 2/3/2
f 3/3/3 2/4/3 8/1/3
f 3/4/4 8/2/4 4/3/4
f 4/4/5 9/2/5 5/3/5
f 1/4/6 5/2/6 6/3/6
f 6/4/7 11/2/7 7/3/7
f 7/4/55 12/2/55 8/3/55
f 8/4/9 13/2/9 9/3/9
f 10/3/56 9/4/56 15/1/56
f 10/4/11 15/2/11 6/3/11
f 12/3/12 11/4/12 17/1/12
f 12/4/13 17/2/13 13/3/13
f 13/4/1 18/2/1 14/3/1
f 15/3/14 14/4/14 20/1/14
f 15/4/15 20/2/15 11/3/15
f 16/4/16 21/2/16 17/3/16
f 18/3/17 17/4/17 23/1/17
f 19/3/18 18/4/18 24/1/18
f 19/4/57 24/2/57 20/3/57
f 20/4/20 25/2/20 16/3/20
f 21/4/21 1/2/21 22/3/21
f 22/4/22 2/2/22 23/3/22
f 23/4/23 3/2/23 24/3/23
f 24/4/24 4/2/24 25/3/24
f 25/4/25 5/2/25 21/3/25
f 54/4/26 32/2/26 55/3/26
f 55/4/26 31/2/26 56/3/26
f 56/4/26 30/2/26 57/3/26
f 57/4/26 29/2/26 58/3/26
f 58/4/26 28/2/26 59/3/26
f 60/3/27 59/4/27 26/1/27
f 68/4/28 47/2/28 69/3/28
f 69/4/28 48/2/28 70/3/28
f 70/4/28 49/2/28 71/3/28
f 71/4/28 50/2/28 72/3/28
f 72/4/28 51/2/28 73/3/28
f 74/3/29 73/4/29 53/1/29
f 61/4/30 40/2/30 62/3/30
f 62/4/30 41/2/30 63/3/30
f 63/4/30 42/2/30 64/3/30
f 64/4/30 43/2/30 65/3/30
f 65/4/30 44/2/30 66/3/30
f 67/3/31 66/4/31 46/1/31
f 75/4/32 33/2/32 76/3/32
f 76/4/32 34/2/32 77/3/32
f 77/4/32 35/2/32 78/3/32
f 78/4/32 36/2/32 79/3/32
f 79/4/32 37/2/32 80/3/32
f 81/3/33 80/4/33 39/1/33
f 38/4/34 66/2/34 39/3/34
f 37/4/35 65/2/35 38/3/35
f 36/4/35 64/2/35 37/3/35
f 35/4/35 63/2/35 36/3/35
f 34/4/35 62/2/35 35/3/35
f 33/4/35 61/2/35 34/3/35
f 52/4/36 59/2/36 53/3/36
f 51/4/37 58/2/37 52/3/37
f 50/4/37 57/2/37 51/3/37
f 49/4/37 56/2/37 50/3/37
f 48/4/37 55/2/37 49/3/37
f 47/4/37 54/2/37 48/3/37
f 27/4/38 80/2/38 26/3/38
f 28/4/39 79/2/39 27/3/39
f 29/4/39 78/2/39 28/3/39
f 30/4/39 77/2/39 29/3/39
f 31/4/39 76/2/39 30/3/39
f 32/4/39 75/2/39 31/3/39
f 45/4/40 73/2/40 46/3/40
f 44/4/41 72/2/41 45/3/41
f 43/4/41 71/2/41 44/3/41
f 42/4/41 70/2/41 43/3/41
f 41/4/41 69/2/41 42/3/41
f 40/4/41 68/2/41 41/3/41
f 128/3/42 54/4/42 127/1/42
f 47/4/43 68/2/43 127/3/43
f 32/4/44 54/2/44 82/3/44
f 33/4/45 75/2/45 125/3/45
f 40/4/46 61/2/46 126/3/46
f 130/3/47 68/4/47 126/1/47
f 129/3/48 61/4/48 125/1/48
f 131/3/49 75/4/49 82/1/49
f 136/9/50 137/5/50 83/3/50
f 137/9/51 138/5/51 85/3/51
f 138/9/52 139/5/52 89/3/52
f 139/9/53 136/5/53 87/3/53
f 83/4/1 85/2/1 87/3/1
f 88/4/54 90/2/54 84/3/54
f 132/9/50 133/5/50 91/3/50
f 133/9/51 134/5/51 93/3/51
f 134/9/52 135/5/52 97/3/52
f 135/9/53 132/5/53 95/3/53
f 91/4/1 93/2/1 95/3/1
f 96/4/54 98/2/54 92/3/54
f 140/9/50 141/5/50 99/3/50
f 141/9/51 142/5/51 101/3/51
f 142/9/52 143/5/52 105/3/52
f 143/9/53 140/5/53 103/3/53
f 99/4/1 101/2/1 103/3/1
f 104/4/54 106/2/54 100/3/54
f 144/9/50 145/5/50 107/3/50
f 145/9/51 146/5/51 109/3/51
f 146/9/52 147/5/52 113/3/52
f 147/9/53 144/5/53 111/3/53
f 107/4/1 109/2/1 111/3/1
f 112/4/54 114/2/54 108/3/54
f 115/4/23 116/2/23 117/3/23
f 117/4/18 118/2/18 119/3/18
f 119/4/1 120/2/1 121/3/1
f 122/8/53 120/10/53 118/6/53
f 116/7/53 124/11/53 122/8/53
f 123/4/4 124/2/4 115/3/4
f 121/4/9 122/2/9 123/3/9
f 121/8/51 123/10/51 115/6/51
f 117/7/51 119/11/51 121/8/51
f 96/4/53 92/2/53 135/9/53
f 98/4/52 96/2/52 134/9/52
f 94/4/51 98/2/51 133/9/51
f 92/4/50 94/2/50 132/9/50
f 88/4/53 84/2/53 139/9/53
f 90/4/52 88/2/52 138/9/52
f 86/4/51 90/2/51 137/9/51
f 84/4/50 86/2/50 136/9/50
f 104/4/53 100/2/53 143/9/53
f 106/4/52 104/2/52 142/9/52
f 102/4/51 106/2/51 141/9/51
f 100/4/50 102/2/50 140/9/50
f 112/4/53 108/2/53 147/9/53
f 114/4/52 112/2/52 146/9/52
f 110/4/51 114/2/51 145/9/51
f 108/4/50 110/2/50 144/9/50
